<svg width="50" height="49" viewBox="0 0 50 49" fill="none" xmlns="http://www.w3.org/2000/svg">
<path d="M25 1.25C38.3789 1.25 49.2188 11.6562 49.2188 24.5C49.2188 37.3438 38.3789 47.75 25 47.75C11.6211 47.75 0.78125 37.3438 0.78125 24.5C0.78125 11.6562 11.6211 1.25 25 1.25ZM13.6719 28.625H25V35.2719C25 36.275 26.2695 36.7812 27.002 36.0687L38.1641 25.2969C38.623 24.8563 38.623 24.1531 38.1641 23.7125L27.002 12.9313C26.2598 12.2188 25 12.725 25 13.7281V20.375H13.6719C13.0273 20.375 12.5 20.8813 12.5 21.5V27.5C12.5 28.1187 13.0273 28.625 13.6719 28.625Z" fill="black"/>
</svg>
