<svg width="50" height="102" viewBox="0 0 50 102" fill="none" xmlns="http://www.w3.org/2000/svg">
<g filter="url(#filter0_d_199_2523)">
<path d="M0 25.5C0 11.6929 11.1929 0.5 25 0.5C38.8071 0.5 50 11.6929 50 25.5V76.5C50 90.3071 38.8071 101.5 25 101.5C11.1929 101.5 0 90.3071 0 76.5V25.5Z" fill="#1565C0" shape-rendering="crispEdges"/>
<path d="M25 74.5C11.1895 74.5 0 63.7581 0 50.5C0 37.2419 11.1895 26.5 25 26.5C38.8105 26.5 50 37.2419 50 50.5C50 63.7581 38.8105 74.5 25 74.5ZM36.6936 46.2419H25V39.3806C25 38.3452 23.6895 37.8226 22.9335 38.5581L11.4113 49.6774C10.9375 50.1323 10.9375 50.8581 11.4113 51.3129L22.9335 62.4323C23.6996 63.1677 25 62.6452 25 61.6097V54.7581H36.6936C37.3589 54.7581 37.9032 54.2355 37.9032 53.5968V47.4032C37.9032 46.7645 37.3589 46.2419 36.6936 46.2419Z" fill="black"/>
</g>
<defs>
<filter id="filter0_d_199_2523" x="-4" y="0.5" width="58" height="109" filterUnits="userSpaceOnUse" color-interpolation-filters="sRGB">
<feFlood flood-opacity="0" result="BackgroundImageFix"/>
<feColorMatrix in="SourceAlpha" type="matrix" values="0 0 0 0 0 0 0 0 0 0 0 0 0 0 0 0 0 0 127 0" result="hardAlpha"/>
<feOffset dy="4"/>
<feGaussianBlur stdDeviation="2"/>
<feComposite in2="hardAlpha" operator="out"/>
<feColorMatrix type="matrix" values="0 0 0 0 0 0 0 0 0 0 0 0 0 0 0 0 0 0 0.25 0"/>
<feBlend mode="normal" in2="BackgroundImageFix" result="effect1_dropShadow_199_2523"/>
<feBlend mode="normal" in="SourceGraphic" in2="effect1_dropShadow_199_2523" result="shape"/>
</filter>
</defs>
</svg>
