<svg width="114" height="50" viewBox="0 0 114 50" fill="none" xmlns="http://www.w3.org/2000/svg">
<path d="M76.0725 0V36.3055C78.8083 36.5138 81.5371 36.7657 84.2582 37.0628V44.76C79.9567 44.2907 75.6371 43.9324 71.2996 43.6881V0H76.0725ZM114 0.00430111L107.785 23.5892L113.998 49.8347L113.991 49.8397C112.182 49.417 110.369 49.018 108.552 48.6355L105.062 33.905L101.54 47.2681C99.8706 46.9664 98.199 46.6809 96.5235 46.4134L102.582 23.4315L97.0336 0.00430111H102.197L105.303 13.1144L108.758 0.00430111H114ZM54.919 43.3066L54.9189 0.00416194H68.2422V7.77055H59.6918V17.8361H66.1613V25.5333H59.6918V43.3048L54.919 43.3066ZM37.0971 7.77119L37.097 0.00375709H51.8593V7.77065H46.8644V43.5173C45.2713 43.5856 43.68 43.6665 42.0918 43.7645V7.77119H37.0971ZM20.7807 46.0023V0.00506007H34.0376V7.77144H25.5528V18.2917C27.5021 18.2508 30.2736 18.2045 31.9979 18.2113V25.9092C29.8395 25.8653 27.4032 25.9576 25.5528 25.9878V37.6412C28.3728 37.2782 31.2013 36.9605 34.0376 36.6924V44.3903C29.5985 44.8088 25.1794 45.348 20.7807 46.0023ZM11.418 28.208L11.4177 0.00379514H16.1906V46.7278C14.4458 47.0216 12.7044 47.3342 10.9659 47.6643L5.43922 21.6755V48.7774C3.84521 49.1172 2.25445 49.4715 0.666626 49.8414V0.00430111H5.20243L11.418 28.208ZM88.1957 45.2243V0.00435149H92.9686V45.8695C91.3797 45.638 89.7892 45.4239 88.1957 45.2243Z" fill="white"/>
</svg>
