<svg width="108" height="47" viewBox="0 0 108 47" fill="none" xmlns="http://www.w3.org/2000/svg">
<path d="M48.9638 31.6752C49.0274 31.6752 49.0274 31.6752 49.0911 31.6917C50.0674 31.7911 51.0224 31.9235 51.744 32.1884C52.4232 32.4202 52.8264 32.7182 53.1872 33.248C53.739 34.0427 53.7815 35.152 53.2721 35.9964C52.8901 36.6255 52.0836 37.1553 51.3408 37.4368C50.5767 37.7348 49.8127 37.8672 48.9425 37.95C47.4145 38.0824 45.759 37.8341 44.4007 37.3209C43.5942 37.0063 42.5967 36.4765 42.0874 35.7977C41.7266 35.301 41.7266 34.6387 42.1723 34.1586C42.8938 33.397 44.4219 33.2315 45.568 33.2646C46.4382 33.2977 48.0299 33.4964 48.8576 33.7281C49.0911 33.7944 49.94 34.0593 50.0886 34.1752C50.1947 34.2579 50.2584 34.3738 50.216 34.4897C50.0249 34.9367 48.603 35.1851 48.1997 35.2348C47.0961 35.3672 46.5443 35.0361 45.2921 34.6553C44.9737 34.556 44.5705 34.4566 44.2522 34.4401C43.6791 34.3904 43 34.5228 42.8939 35.003C42.8302 35.2513 43.2122 35.4831 43.4881 35.5824C44.146 35.8142 44.6978 35.8805 45.3558 35.897C47.2871 35.9136 49.4731 35.6652 51.0649 34.7877C51.2771 34.6718 51.4894 34.4897 51.4894 34.2745C51.4894 33.8275 50.4919 33.546 50.4919 33.546C49.4307 33.1983 47.4357 33.0328 46.4382 32.9666C45.377 32.9003 43.6791 32.7844 43.2759 32.7348C42.8514 32.6851 42.4057 32.6189 42.0449 32.503C41.6841 32.3705 41.3233 32.0891 41.2172 31.7745C41.0262 31.2116 41.2596 30.5162 41.6629 30.0526C42.7241 28.8606 45.2072 28.4136 47.0749 28.2315C48.8789 28.0493 51.7865 28.0659 53.548 28.7944C53.8239 28.9103 53.9513 29.0096 53.9088 29.2414C53.8027 29.6718 53.3782 29.9367 52.8901 30.0692C52.3595 30.2016 51.2771 30.2513 50.8102 30.2679C48.6879 30.3672 46.1198 30.3175 44.0824 30.748C43.9338 30.7811 43.6579 30.8473 43.5518 30.9136C43.2334 31.1785 44.146 31.2613 44.337 31.2944C44.4007 31.3109 44.4007 31.3109 44.4644 31.3109L48.9638 31.6752ZM36.2934 24.2745C36.2934 24.2745 36.6329 23.8771 36.9301 23.5626C37.4606 22.9997 38.4157 22.2215 39.1373 21.7414C39.3495 21.5924 39.6254 21.4268 39.6254 21.4268C39.6254 21.4268 39.2222 21.4599 38.9887 21.493C38.4369 21.5758 37.6517 21.9897 37.2484 22.2546C36.5905 22.7016 35.8689 23.4136 36.1872 24.0427C36.2297 24.1586 36.2934 24.2745 36.2934 24.2745ZM39.965 25.0361C41.005 24.9864 41.9812 24.7381 42.8939 24.3573C43.7852 23.9765 45.1011 23.2149 44.9525 22.3209C44.9101 22.0394 44.6766 21.8076 44.3583 21.7083C43.955 21.5758 43.764 21.5924 43.2547 21.7083C42.8939 21.7911 42.7241 21.8407 42.3633 22.0063C41.3445 22.4699 39.8801 23.4632 39.0948 24.2579C38.9038 24.4401 38.7341 24.6553 38.5855 24.8043C38.5006 24.8871 38.4157 24.9699 38.4369 25.003C38.4794 25.0692 39.5618 25.0692 39.965 25.0361ZM37.3121 26.5593C37.206 26.642 37.0998 26.8573 36.9725 27.0228C36.9088 27.1056 36.8027 27.205 36.7178 27.2546C36.4419 27.4036 36.2085 27.4202 35.9538 27.2381C35.593 26.9897 35.3807 26.5924 35.3595 26.2116C35.3595 26.046 35.3807 25.8639 35.3383 25.7149C35.2746 25.4831 34.9775 25.2348 34.8077 25.003C34.6167 24.7381 34.4681 24.2745 34.4469 23.9765C34.3832 23.0328 35.0199 22.1718 35.8264 21.493C36.6542 20.7977 37.7365 20.2348 38.9251 19.8374C40.0287 19.4732 41.6629 19.2248 42.8939 19.556C43.2971 19.6553 43.8489 19.9202 44.1248 20.2017C44.1885 20.2513 44.2309 20.3175 44.2946 20.3507C44.3583 20.3838 44.4856 20.3838 44.6129 20.4003C44.995 20.45 45.568 20.6818 45.8015 20.8308C46.2684 21.1454 46.5231 21.4434 46.6292 21.8738C46.8626 22.7348 46.2259 23.695 45.5043 24.2745C44.2522 25.2679 43.0212 25.9632 41.4294 26.4599C40.7291 26.6752 39.6467 26.8738 38.8402 26.8242C38.5855 26.8076 38.3308 26.7579 38.0973 26.7414C37.97 26.7248 37.5243 26.642 37.4819 26.6255C37.397 26.5758 37.3333 26.5593 37.3121 26.5593ZM38.7341 28.4798C38.7765 28.4798 38.8614 28.4964 38.9251 28.5295C39.4769 28.695 39.7103 29.0924 39.8589 29.5394C40.1772 30.5659 40.3046 32.8507 40.3683 33.7447C40.4107 34.4069 40.4319 35.0692 40.4744 35.7315C40.4956 36.2944 40.5593 37.0394 40.4107 37.5526C40.347 37.7348 40.1985 37.9666 39.965 38.0659C39.6891 38.1983 39.0948 38.2149 38.7553 38.1487C37.9276 38.0162 37.6729 37.6023 37.5455 36.9732C37.2696 35.4666 37.397 32.503 37.5668 31.2613C37.6304 30.8473 37.8214 29.5228 38.0973 28.9765C38.1822 28.8109 38.3945 28.4301 38.7341 28.4798ZM13.8389 30.9964C13.8389 30.9964 12.6292 31.0626 11.7802 31.1288C10.7191 31.2116 8.70284 31.493 7.55678 31.8076C7.2172 31.9069 6.4956 32.1387 6.45316 32.4202C6.38948 32.7016 6.62294 32.9334 6.87762 33.1652C7.02619 33.2977 7.8539 33.9268 8.08736 34.0758C9.06364 34.7215 11.0586 35.6983 12.5231 36.1785C13.0324 36.344 13.8601 36.5758 13.8601 36.5758C13.8601 36.5758 13.7965 34.7215 13.8177 32.9003C13.8177 31.9401 13.8389 30.9964 13.8389 30.9964ZM36.166 31.7248C36.2297 32.2215 36.0811 33.1652 36.0387 33.2811C35.9962 33.5626 35.7203 34.2248 35.6566 34.3076C35.4232 34.705 35.211 35.0361 34.9775 35.3672C34.5742 35.9301 33.6192 36.8242 33.0674 37.205C30.9663 38.6122 27.7191 39.4235 24.9388 39.6884C23.0499 39.8705 20.8851 39.8374 18.8689 39.556C18.1897 39.4566 17.1498 39.2745 17.1498 39.2745C17.1498 39.2745 17.1498 39.5891 17.1286 39.8209C17.1073 39.9202 17.0224 40.2017 16.9588 40.2844C16.8102 40.5162 16.5767 40.6321 16.2372 40.6983C15.8127 40.7646 15.367 40.7811 14.985 40.6487C14.3483 40.4334 14.1148 39.9699 14.0087 39.4401C13.9238 39.0096 13.8177 38.2646 13.8177 38.2646C13.8177 38.2646 13.3508 38.0824 12.9475 37.9334C11.7378 37.4699 10.5705 36.8904 9.55178 36.3109C9.27588 36.1454 8.06614 35.3672 7.79023 35.1685C7.04741 34.6222 6.36826 34.0593 5.8589 33.3639C5.45565 32.8175 5.34953 32.3209 5.64666 31.7414C6.07113 30.9301 7.55678 30.3175 8.5755 29.9699C9.31832 29.705 11.6741 29.1089 12.6292 29.0096C13.0961 28.9599 13.7965 28.8606 13.8389 28.844C13.8601 28.8275 13.8601 28.8275 13.8814 28.8109C13.9026 28.7944 13.945 27.9831 13.9238 27.6851C13.9238 27.3871 14.1997 25.4997 14.2846 25.0858C14.3271 24.8705 14.5393 24.0262 14.7515 23.8109C14.9001 23.6619 15.1336 23.6785 15.3458 23.7778C16.4494 24.3242 16.789 26.195 16.8739 27.1387C16.9163 27.7182 16.9588 28.5957 16.9588 28.5957C16.9588 28.5957 18.2322 28.5626 19.0174 28.5791C19.7815 28.5957 20.6304 28.695 21.4157 28.7778C22.4344 28.9103 24.4082 29.2414 25.5331 29.6884C26.4669 30.0526 27.337 30.6818 27.6342 31.344C27.8889 31.9401 27.8676 32.3705 27.4644 32.9169C27.0187 33.5295 26.1698 33.993 25.2996 34.0262C25.0449 34.0427 24.0686 33.9434 23.7715 33.7613C23.6654 33.695 23.6654 33.5626 23.7503 33.4798C23.7715 33.4467 24.2384 33.2646 24.4931 33.1487C24.6204 33.099 24.7478 33.0328 24.8327 32.95C25.0449 32.801 25.2571 32.6354 25.2359 32.4367C25.2147 32.1884 24.8539 32.0228 24.5356 31.9235C22.9862 31.4434 19.8876 31.046 18.402 30.9798C17.8077 30.9467 16.98 30.9301 16.98 30.9301L17.1498 37.3705C17.1498 37.3705 17.8289 37.4699 18.3807 37.5361C18.6991 37.5692 20.015 37.6685 20.3545 37.6685C23.0287 37.7182 26 37.5361 28.4407 36.642C29.5231 36.2447 30.4993 35.7646 31.2422 35.0858C32.2184 34.2083 32.749 32.9997 32.6005 31.7414C32.4519 30.3672 31.2209 28.7447 30.2234 27.7513C27.613 25.1354 23.1348 22.9665 19.1872 21.7083C15.1548 20.4169 11.186 19.6718 6.92007 19.556C5.81645 19.5228 3.4182 19.5725 2.20846 19.8374C2.03867 19.8705 1.86889 19.9202 1.6991 19.9533C1.57176 19.9699 1.38075 20.0361 1.31708 20.0858C1.29585 20.1023 1.2534 20.1354 1.2534 20.1354C1.2534 20.1354 1.3383 20.1685 1.40197 20.1851C1.52931 20.2348 2.08112 20.2513 2.35703 20.301C2.61171 20.3341 2.86639 20.4334 2.97251 20.5824C3.07862 20.7149 3.07862 20.8308 2.97251 20.9467C2.6966 21.2116 1.65665 21.1619 1.21096 21.1122C0.744042 21.046 0.149785 20.9467 0.0436672 20.6156C-0.0836736 20.2348 0.149784 19.8705 0.404466 19.5228C0.913829 18.8275 1.6142 18.4798 2.67538 18.248C4.16102 17.9334 6.04991 17.7016 7.45066 17.6685C10.6342 17.5692 13.6479 18.0162 16.7465 18.7447C18.5081 19.1586 20.8214 19.854 22.5193 20.4997C23.7291 20.9632 25.6604 21.7911 26.7216 22.354C27.0611 22.5361 29.0561 23.6619 29.3533 23.8606C29.99 24.2745 30.8389 24.854 31.4544 25.3341C32.6429 26.2447 34.1073 27.6354 34.8077 28.7613C34.9775 29.0262 35.1048 29.2911 35.3383 29.5891C35.4232 29.6884 35.7415 30.3175 35.784 30.4997C35.8477 30.6818 35.9113 30.9467 35.9326 30.9632C36.0387 30.9798 36.1872 31.5096 36.166 31.7248ZM76.2571 30.301C74.7715 30.5659 70.8452 30.7149 70.8452 30.7149L70.357 31.9235C70.357 31.9235 72.3096 31.7911 73.7528 31.9069C73.7528 31.9069 74.2197 31.8573 74.2621 32.3209C74.2834 32.7348 74.2197 33.1983 74.2197 33.1983C74.2197 33.1983 74.1985 33.4798 73.6891 33.546C73.1585 33.6122 69.4656 33.7281 69.4656 33.7281L68.8714 35.301C68.8714 35.301 68.6591 35.6652 69.1473 35.5659C69.6142 35.4666 73.4769 34.9036 73.9862 34.9864C74.5168 35.0858 75.1323 35.6487 74.9413 36.1619C74.7291 36.7911 70.8664 38.7116 68.5318 38.5791C68.5318 38.5791 67.3008 38.6454 66.2609 37.3374C65.2846 36.0957 66.6217 33.7447 66.6217 33.7447C66.6217 33.7447 66.0062 32.652 66.4519 32.2712C66.4519 32.2712 66.7066 32.0891 67.4919 32.0394L68.4469 30.5162C68.4469 30.5162 67.3645 30.5659 66.7278 29.9533C66.1335 29.3738 66.0911 29.0924 66.5368 28.9434C67.0249 28.7613 71.5243 28.1156 74.6017 28.1983C74.6017 28.1983 75.6841 28.1156 76.5967 29.5725C76.5755 29.5725 77.0212 30.1685 76.2571 30.301ZM64.6479 36.1785C64.2447 36.9069 63.2047 37.6851 61.9101 37.205C60.6367 36.7248 58.578 33.4632 58.578 33.4632C58.578 33.4632 57.7927 32.2546 57.6442 32.2712C57.6442 32.2712 57.4744 32.0394 57.3683 33.3639C57.2621 34.6884 57.3895 37.2712 56.7103 37.6685C56.0736 38.0824 55.2884 37.9169 54.8851 37.4368C54.5243 36.9732 54.3757 35.8473 54.5668 33.8937C54.8002 31.9401 55.3945 29.854 56.1373 29.2083C56.8801 28.5626 57.4744 29.0262 57.7078 29.2083C57.7078 29.2083 58.7053 29.9202 60.3395 31.9732L60.6367 32.354C60.6367 32.354 62.1223 34.3076 62.2921 34.3076C62.2921 34.3076 62.4194 34.3904 62.5256 34.3242C62.6741 34.2911 62.6105 33.6619 62.6105 33.6619C62.6105 33.6619 62.2921 31.5262 60.9338 27.9334C60.9338 27.9334 60.7216 27.4864 60.8701 27.056C61.0187 26.6255 61.5493 26.8242 61.5493 26.8242C61.5493 26.8242 63.6504 27.652 64.6904 30.3341C65.7303 33.0162 65.0299 35.45 64.6479 36.1785ZM87.3358 34.5725C86.3807 35.8805 83.6641 38.6122 80.0561 37.9666C78.8676 40.2182 77.8701 42.503 77.2971 45.897C77.2971 45.897 77.1697 46.5593 76.4694 46.3275C75.769 46.1288 74.6229 45.2348 74.3895 43.9765C74.1348 42.3209 75.0899 39.5394 77 36.344C76.4482 35.6321 76.0661 34.6222 76.3845 33.1652C76.3845 33.1652 76.8726 30.4831 80.332 28.0659C80.332 28.0659 80.7565 27.7844 80.99 27.8672C81.2447 27.95 81.1385 28.8275 80.9263 29.2579C80.7141 29.6884 79.1648 31.7579 79.1648 31.7579C79.1648 31.7579 78.2097 33.1652 78.4644 34.2745C80.2684 32.1056 84.407 27.7182 86.9538 29.0924C87.8027 29.5725 88.206 30.6156 88.206 31.7414C88.206 32.7348 87.9088 33.7778 87.3358 34.5725ZM86.593 31.1288C86.593 31.1288 86.4444 30.2679 85.362 31.2116C84.4282 32.0228 82.7515 33.5295 81.3932 35.5659C82.8152 35.4334 84.1735 34.8374 84.598 34.5394C85.2771 34.0758 86.8477 32.801 86.593 31.1288ZM107.201 30.9301H100.6C100.473 29.1752 100.197 27.4699 99.7728 25.7149C99.7303 25.5328 99.5181 25.4003 99.2846 25.4003H97.7565C97.6292 25.4003 97.5018 25.45 97.4169 25.5328C97.332 25.6156 97.2896 25.7149 97.332 25.8308C97.7565 27.5361 98.0324 29.2083 98.181 30.9467H91.8352C91.538 30.9467 91.3046 31.1288 91.3046 31.3606V32.4367C91.3046 32.6685 91.538 32.8507 91.8352 32.8507H98.2871C98.2871 33.1156 98.2871 33.3473 98.2871 33.5791C98.2871 35.1189 98.2022 36.3937 98.0112 37.8341C97.99 37.95 98.0324 38.0493 98.1385 38.1321C98.2234 38.2149 98.372 38.2646 98.4993 38.2646H99.9213C100.197 38.2646 100.431 38.099 100.452 37.8838C100.643 36.4434 100.728 35.152 100.728 33.5791C100.728 33.3639 100.728 33.1156 100.728 32.8507H107.243C107.541 32.8507 107.774 32.6685 107.774 32.4367V31.3606C107.732 31.1122 107.498 30.9301 107.201 30.9301Z" fill="white"/>
<path d="M98.8601 22.8839C95.5068 16.4269 89.7977 10.9137 82.4119 6.9733C74.8351 2.91701 65.9637 0.78125 56.7315 0.78125C41.4718 0.78125 27.337 6.69185 18.8901 16.5925C18.8052 16.6918 18.784 16.8409 18.8264 16.9567C18.8901 17.0892 18.9962 17.172 19.166 17.2216L20.3545 17.5362C20.4182 17.5528 20.5031 17.5693 20.5667 17.5693C20.779 17.5693 20.9912 17.4865 21.1185 17.3375C25.0024 12.9005 30.2446 9.19184 36.2933 6.64218C42.533 4.00973 49.6217 2.60244 56.7527 2.60244C65.3907 2.60244 73.7103 4.5892 80.8201 8.34747C87.7602 12.0064 93.1722 17.1223 96.4194 23.1322C96.5255 23.3144 96.7378 23.4303 96.9924 23.4303H98.4144C98.5842 23.4303 98.7328 23.364 98.8177 23.2647C98.9238 23.1322 98.9238 22.9998 98.8601 22.8839Z" fill="white"/>
</svg>
