<svg width="32" height="32" viewBox="0 0 32 32" fill="none" xmlns="http://www.w3.org/2000/svg">
<path fill-rule="evenodd" clip-rule="evenodd" d="M22.7076 3.29086C22.8007 3.38375 22.8746 3.4941 22.925 3.61559C22.9754 3.73708 23.0014 3.86732 23.0014 3.99886C23.0014 4.13039 22.9754 4.26064 22.925 4.38213C22.8746 4.50362 22.8007 4.61397 22.7076 4.70686L11.4136 15.9989L22.7076 27.2909C22.8954 27.4786 23.0009 27.7333 23.0009 27.9989C23.0009 28.2644 22.8954 28.5191 22.7076 28.7069C22.5198 28.8946 22.2651 29.0001 21.9996 29.0001C21.734 29.0001 21.4794 28.8946 21.2916 28.7069L9.29159 16.7069C9.19846 16.614 9.12458 16.5036 9.07416 16.3821C9.02375 16.2606 8.9978 16.1304 8.9978 15.9989C8.9978 15.8673 9.02375 15.7371 9.07416 15.6156C9.12458 15.4941 9.19846 15.3837 9.29159 15.2909L21.2916 3.29086C21.3845 3.19773 21.4948 3.12385 21.6163 3.07343C21.7378 3.02302 21.8681 2.99707 21.9996 2.99707C22.1311 2.99707 22.2614 3.02302 22.3829 3.07343C22.5043 3.12385 22.6147 3.19773 22.7076 3.29086Z" fill="white"/>
</svg>
