<svg width="55" height="40" viewBox="0 0 55 40" fill="none" xmlns="http://www.w3.org/2000/svg">
<path d="M53.8927 8.83205C53.8927 4.14468 50.4449 0.373948 46.1846 0.373948C40.4139 0.104163 34.5286 0 28.5142 0H26.6393C20.6394 0 14.7437 0.104164 8.97307 0.37499C4.72319 0.37499 1.27536 4.16655 1.27536 8.85393C1.01495 12.5611 0.90454 16.2693 0.91079 19.9776C0.900373 23.6858 1.01843 27.3975 1.26495 31.1127C1.26495 35.8001 4.71277 39.602 8.96265 39.602C15.025 39.8833 21.2436 40.0083 27.5663 39.9979C33.8995 40.0187 40.1007 39.8868 46.17 39.602C50.4303 39.602 53.8781 35.8001 53.8781 31.1127C54.1281 27.394 54.2427 23.6858 54.2323 19.9672C54.2559 16.2589 54.1427 12.5472 53.8927 8.83205ZM22.4727 30.1961V9.72786L37.5765 19.9567L22.4727 30.1961Z" fill="white"/>
</svg>
