<svg width="47" height="40" viewBox="0 0 47 40" fill="none" xmlns="http://www.w3.org/2000/svg">
<path d="M29.8507 20C29.1661 20 28.4968 20.203 27.9276 20.5834C27.3583 20.9637 26.9146 21.5044 26.6527 22.1369C26.3907 22.7694 26.3221 23.4654 26.4557 24.1369C26.5892 24.8083 26.9189 25.4251 27.403 25.9092C27.8871 26.3933 28.5039 26.723 29.1754 26.8566C29.8469 26.9901 30.5429 26.9216 31.1754 26.6596C31.8079 26.3976 32.3485 25.9539 32.7289 25.3847C33.1092 24.8154 33.3122 24.1462 33.3122 23.4615C33.3122 22.5435 32.9475 21.663 32.2984 21.0139C31.6492 20.3647 30.7688 20 29.8507 20Z" fill="white"/>
<path d="M18.0989 26.6593C19.8651 25.9277 20.7038 23.9028 19.9722 22.1366C19.2406 20.3704 17.2157 19.5316 15.4495 20.2632C13.6833 20.9948 12.8445 23.0197 13.5761 24.7859C14.3077 26.5522 16.3326 27.3909 18.0989 26.6593Z" fill="white"/>
<path d="M46.3892 19.7856C46.3892 16.7865 43.9719 14.3471 41.0046 14.3471C39.7539 14.347 38.5426 14.7845 37.5806 15.5837C34.2152 13.2981 29.8133 11.899 25.1142 11.6154L27.2296 4.01923L33.6152 5.28846C33.7979 7.83462 35.9229 9.85481 38.4854 9.85481C41.1777 9.85481 43.3681 7.64327 43.3681 4.93077C43.3681 2.21827 41.1008 0 38.4085 0C36.5306 0 34.9171 1.07596 34.096 2.76635L25.4421 1.04615L22.4517 11.5769L22.0066 11.5894C17.1383 11.8019 12.5508 13.2173 9.0479 15.5827C8.08613 14.7805 6.87239 14.3431 5.62002 14.3471C2.64983 14.3471 0.235405 16.7865 0.235405 19.7856C0.231165 20.7401 0.478828 21.6789 0.953392 22.5072C1.42796 23.3354 2.11263 24.0238 2.93829 24.5029C2.88079 24.928 2.8522 25.3566 2.85271 25.7856C2.86329 29.6067 5.01521 33.1894 8.91041 35.8817C12.77 38.5356 17.8806 40 23.3123 40C28.7441 40 33.8662 38.5356 37.7191 35.876C41.6162 33.1837 43.7623 29.6 43.7623 25.774C43.7614 25.3465 43.7345 24.9194 43.6816 24.4952C44.5077 24.0182 45.1932 23.3315 45.6687 22.5045C46.1441 21.6775 46.3927 20.7395 46.3892 19.7856ZM38.5046 2.59615C38.9611 2.59615 39.4072 2.7315 39.7867 2.98507C40.1662 3.23864 40.462 3.59906 40.6367 4.02073C40.8113 4.44241 40.857 4.90641 40.768 5.35405C40.6789 5.8017 40.4592 6.21289 40.1364 6.53563C39.8137 6.85837 39.4025 7.07815 38.9548 7.1672C38.5072 7.25624 38.0432 7.21054 37.6215 7.03588C37.1998 6.86121 36.8394 6.56543 36.5859 6.18593C36.3323 5.80643 36.1969 5.36026 36.1969 4.90385C36.1969 4.29181 36.4401 3.70484 36.8728 3.27206C37.3056 2.83928 37.8926 2.59615 38.5046 2.59615ZM2.80464 19.7856C2.80182 19.0319 3.09807 18.3079 3.62839 17.7723C4.15871 17.2368 4.8798 16.9334 5.63348 16.9288C6.09045 16.9298 6.54018 17.0431 6.9431 17.2587C5.45271 18.6442 4.35367 20.1827 3.66714 21.8433C3.39493 21.574 3.17861 21.2536 3.0306 20.9005C2.88258 20.5473 2.80579 20.1685 2.80464 19.7856ZM36.2758 33.75C32.8392 36.1144 28.2373 37.4173 23.3171 37.4173C18.3969 37.4173 13.7931 36.1163 10.3594 33.75C7.18637 31.5587 5.43252 28.725 5.43252 25.7692C5.43429 24.8736 5.59545 23.9853 5.90848 23.1462C6.45464 21.6327 7.46233 20.2154 8.90367 18.9356C9.354 18.5378 9.82794 18.1676 10.3229 17.8269L10.3518 17.8067L10.3748 17.7904C13.8094 15.4327 18.4056 14.1365 23.3181 14.1365C28.2306 14.1365 32.8277 15.4356 36.2623 17.7904L36.2844 17.8067L36.3171 17.8308C36.8115 18.1701 37.285 18.5388 37.7354 18.9346C39.1777 20.2154 40.1854 21.6317 40.7316 23.1471C40.9298 23.6971 41.0687 24.2667 41.146 24.8462C41.1846 25.1539 41.2038 25.4638 41.2037 25.774C41.2027 28.7279 39.4527 31.5615 36.2758 33.75ZM42.9681 21.8346C42.2825 20.1731 41.1835 18.6337 39.6921 17.2462C40.0966 17.0328 40.5473 16.9219 41.0046 16.9231C41.7582 16.9277 42.4792 17.231 43.0094 17.7666C43.5396 18.3022 43.8356 19.0262 43.8325 19.7798C43.8318 20.1628 43.7551 20.5418 43.6067 20.8949C43.4583 21.248 43.2412 21.5681 42.9681 21.8365V21.8346Z" fill="white"/>
<path d="M29.7767 30.2135C29.7526 30.2375 27.319 32.7202 23.3199 32.7394C19.2815 32.7202 16.9469 30.3135 16.8478 30.2135C16.7733 30.1395 16.6725 30.0981 16.5675 30.0981C16.4625 30.0981 16.3618 30.1395 16.2872 30.2135L14.9699 31.5087C14.9326 31.5457 14.9029 31.5899 14.8827 31.6385C14.8625 31.6871 14.8521 31.7392 14.8521 31.7918C14.8521 31.8445 14.8625 31.8966 14.8827 31.9452C14.9029 31.9938 14.9326 32.0379 14.9699 32.075C15.2969 32.4019 18.3065 35.3663 23.3142 35.3875C28.3084 35.3663 31.3315 32.4019 31.6584 32.075C31.6958 32.0378 31.7255 31.9936 31.7457 31.9449C31.766 31.8963 31.7764 31.8441 31.7764 31.7913C31.7764 31.7386 31.766 31.6864 31.7457 31.6377C31.7255 31.5891 31.6958 31.5449 31.6584 31.5077L30.3401 30.2125C30.2658 30.1389 30.1654 30.0977 30.0608 30.0977C29.9562 30.0977 29.8558 30.1389 29.7815 30.2125L29.7767 30.2135Z" fill="white"/>
</svg>
