<svg width="32" height="32" viewBox="0 0 32 32" fill="none" xmlns="http://www.w3.org/2000/svg">
<path fill-rule="evenodd" clip-rule="evenodd" d="M9.29159 3.29086C9.38448 3.19773 9.49483 3.12385 9.61632 3.07343C9.73781 3.02302 9.86806 2.99707 9.99959 2.99707C10.1311 2.99707 10.2614 3.02302 10.3829 3.07343C10.5043 3.12385 10.6147 3.19773 10.7076 3.29086L22.7076 15.2909C22.8007 15.3837 22.8746 15.4941 22.925 15.6156C22.9754 15.7371 23.0014 15.8673 23.0014 15.9989C23.0014 16.1304 22.9754 16.2606 22.925 16.3821C22.8746 16.5036 22.8007 16.614 22.7076 16.7069L10.7076 28.7069C10.5198 28.8946 10.2651 29.0001 9.99959 29.0001C9.73404 29.0001 9.47936 28.8946 9.29159 28.7069C9.10382 28.5191 8.99833 28.2644 8.99833 27.9989C8.99833 27.7333 9.10382 27.4786 9.29159 27.2909L20.5856 15.9989L9.29159 4.70686C9.19846 4.61397 9.12458 4.50362 9.07416 4.38213C9.02375 4.26064 8.9978 4.13039 8.9978 3.99886C8.9978 3.86732 9.02375 3.73708 9.07416 3.61559C9.12458 3.4941 9.19846 3.38375 9.29159 3.29086Z" fill="white"/>
</svg>
