<svg width="35" height="40" viewBox="0 0 35 40" fill="none" xmlns="http://www.w3.org/2000/svg">
<path d="M30.3511 8.55457C30.0811 8.41504 29.8183 8.26208 29.5636 8.09626C28.823 7.60667 28.144 7.02977 27.5412 6.37802C26.033 4.65227 25.4697 2.90152 25.2622 1.67575H25.2705C25.0972 0.658301 25.1688 0 25.1797 0H18.31V26.5637C18.31 26.9203 18.31 27.2728 18.295 27.6211C18.295 27.6645 18.2908 27.7044 18.2883 27.7511C18.2883 27.7703 18.2883 27.7903 18.2842 27.8103V27.8253C18.2118 28.7784 17.9062 29.6991 17.3945 30.5064C16.8827 31.3137 16.1804 31.9829 15.3493 32.455C14.4832 32.9478 13.5035 33.2063 12.507 33.205C9.3063 33.205 6.71226 30.5951 6.71226 27.372C6.71226 24.1488 9.3063 21.5389 12.507 21.5389C13.1128 21.5384 13.715 21.6337 14.291 21.8214L14.2994 14.8268C12.5506 14.6009 10.774 14.7398 9.08162 15.2349C7.38924 15.73 5.81784 16.5705 4.46654 17.7033C3.28248 18.7321 2.28705 19.9596 1.52502 21.3306C1.23503 21.8306 0.14092 23.8396 0.00842613 27.1003C-0.074903 28.9511 0.480902 30.8685 0.745889 31.6609V31.6776C0.912548 32.1442 1.55835 33.7366 2.6108 35.0791C3.45945 36.1559 4.46211 37.1019 5.58648 37.8864V37.8698L5.60315 37.8864C8.92881 40.1463 12.6161 39.998 12.6161 39.998C13.2544 39.9722 15.3927 39.998 17.8209 38.8472C20.5141 37.5715 22.0473 35.6707 22.0473 35.6707C23.0268 34.535 23.8057 33.2407 24.3505 31.8434C24.9722 30.2093 25.1797 28.2494 25.1797 27.4661V13.3735C25.263 13.4235 26.3729 14.1576 26.3729 14.1576C26.3729 14.1576 27.972 15.1826 30.4669 15.85C32.2568 16.325 34.6684 16.425 34.6684 16.425V9.60535C33.8234 9.69702 32.1077 9.43036 30.3511 8.55457Z" fill="white"/>
</svg>
