<svg width="43" height="42" viewBox="0 0 43 42" fill="none" xmlns="http://www.w3.org/2000/svg">
<path d="M21.6767 11.5666C16.4595 11.5666 12.2513 15.7748 12.2513 20.992C12.2513 26.2092 16.4595 30.4174 21.6767 30.4174C26.8939 30.4174 31.1021 26.2092 31.1021 20.992C31.1021 15.7748 26.8939 11.5666 21.6767 11.5666ZM21.6767 27.1197C18.3052 27.1197 15.549 24.3717 15.549 20.992C15.549 17.6123 18.297 14.8643 21.6767 14.8643C25.0564 14.8643 27.8044 17.6123 27.8044 20.992C27.8044 24.3717 25.0482 27.1197 21.6767 27.1197ZM33.6861 11.1811C33.6861 12.4033 32.7017 13.3795 31.4876 13.3795C30.2654 13.3795 29.2892 12.3951 29.2892 11.1811C29.2892 9.96699 30.2736 8.98262 31.4876 8.98262C32.7017 8.98262 33.6861 9.96699 33.6861 11.1811ZM39.9287 13.4123C39.7892 10.4674 39.1166 7.85879 36.9591 5.70957C34.8099 3.56035 32.2013 2.8877 29.2564 2.74004C26.2212 2.56777 17.124 2.56777 14.0888 2.74004C11.1521 2.87949 8.54351 3.55215 6.38608 5.70137C4.22866 7.85059 3.56421 10.4592 3.41655 13.4041C3.24429 16.4393 3.24429 25.5365 3.41655 28.5717C3.55601 31.5166 4.22866 34.1252 6.38608 36.2744C8.54351 38.4236 11.1439 39.0963 14.0888 39.2439C17.124 39.4162 26.2212 39.4162 29.2564 39.2439C32.2013 39.1045 34.8099 38.4318 36.9591 36.2744C39.1083 34.1252 39.781 31.5166 39.9287 28.5717C40.1009 25.5365 40.1009 16.4475 39.9287 13.4123ZM36.0076 31.8283C35.3677 33.4361 34.1291 34.6748 32.513 35.3229C30.0931 36.2826 24.3509 36.0611 21.6767 36.0611C19.0025 36.0611 13.2521 36.2744 10.8404 35.3229C9.23257 34.683 7.9939 33.4443 7.34585 31.8283C6.38608 29.4084 6.60757 23.6662 6.60757 20.992C6.60757 18.3178 6.39429 12.5674 7.34585 10.1557C7.98569 8.54785 9.22436 7.30918 10.8404 6.66113C13.2603 5.70137 19.0025 5.92285 21.6767 5.92285C24.3509 5.92285 30.1013 5.70957 32.513 6.66113C34.1209 7.30098 35.3595 8.53965 36.0076 10.1557C36.9673 12.5756 36.7458 18.3178 36.7458 20.992C36.7458 23.6662 36.9673 29.4166 36.0076 31.8283Z" fill="white"/>
</svg>
