<svg width="100" height="42" viewBox="0 0 100 42" fill="none" xmlns="http://www.w3.org/2000/svg">
<path d="M99.32 36.3117L89.583 28.134C89.1435 27.7649 88.5477 27.5598 87.9227 27.5598H86.3308C89.0263 24.6644 90.628 21.0226 90.628 17.0608C90.628 7.63636 81.5355 0 70.314 0C59.0925 0 50 7.63636 50 17.0608C50 26.4853 59.0925 34.1217 70.314 34.1217C75.0311 34.1217 79.3674 32.7765 82.8149 30.5126V31.8496C82.8149 32.3746 83.0591 32.8749 83.4985 33.244L93.2356 41.4217C94.1536 42.1928 95.6381 42.1928 96.5464 41.4217L99.3102 39.1005C100.228 38.3295 100.228 37.0827 99.32 36.3117ZM70.314 27.5598C63.4092 27.5598 57.8131 22.8681 57.8131 17.0608C57.8131 11.2618 63.3994 6.56186 70.314 6.56186C77.2188 6.56186 82.8149 11.2536 82.8149 17.0608C82.8149 22.8599 77.2286 27.5598 70.314 27.5598Z" fill="#BBDEFB"/>
</svg>
