<svg width="43" height="42" viewBox="0 0 43 42" fill="none" xmlns="http://www.w3.org/2000/svg">
<path d="M38.3511 12.4456C38.3778 12.8186 38.3778 13.1918 38.3778 13.5649C38.3778 24.9443 29.7167 38.056 13.8867 38.056C9.0098 38.056 4.47938 36.6435 0.668457 34.1918C1.36137 34.2717 2.02755 34.2984 2.74713 34.2984C6.77117 34.2984 10.4755 32.9393 13.4337 30.6207C9.6494 30.5408 6.47807 28.0623 5.38542 24.6512C5.91846 24.7311 6.45141 24.7844 7.01111 24.7844C7.78393 24.7844 8.55683 24.6777 9.27632 24.4913C5.33218 23.6917 2.37397 20.2273 2.37397 16.0433V15.9367C3.51986 16.5763 4.85246 16.9761 6.26479 17.0293C3.94626 15.4836 2.42729 12.8453 2.42729 9.86051C2.42729 8.26156 2.85361 6.79582 3.59984 5.51663C7.83717 10.74 14.2065 14.1511 21.3485 14.5242C21.2153 13.8846 21.1353 13.2185 21.1353 12.5522C21.1353 7.8085 24.9729 3.94434 29.7432 3.94434C32.2216 3.94434 34.4602 4.98367 36.0325 6.66261C37.9779 6.28953 39.8434 5.56995 41.4957 4.58393C40.8561 6.58271 39.497 8.26164 37.7115 9.32755C39.4437 9.1411 41.1227 8.6613 42.6683 7.99512C41.4959 9.70063 40.0301 11.2196 38.3511 12.4456Z" fill="white"/>
</svg>
