<svg width="100" height="42" viewBox="0 0 100 42" fill="none" xmlns="http://www.w3.org/2000/svg">
<path d="M76.5 23.625C83.7979 23.625 89.7188 18.334 89.7188 11.8125C89.7188 5.29102 83.7979 0 76.5 0C69.2021 0 63.2812 5.29102 63.2812 11.8125C63.2812 18.334 69.2021 23.625 76.5 23.625ZM88.25 26.25H83.192C81.1541 27.0867 78.8867 27.5625 76.5 27.5625C74.1133 27.5625 71.8551 27.0867 69.808 26.25H64.75C58.26 26.25 53 30.9504 53 36.75V38.0625C53 40.2363 54.9736 42 57.4062 42H95.5938C98.0264 42 100 40.2363 100 38.0625V36.75C100 30.9504 94.74 26.25 88.25 26.25Z" fill="#BBDEFB"/>
</svg>
