<svg width="101" height="50" viewBox="0 0 101 50" fill="none" xmlns="http://www.w3.org/2000/svg">
<path d="M49.8776 50.0002V49.919C49.9275 49.8175 50.0149 49.7566 50.0898 49.7769C50.4518 49.7566 50.8014 49.7566 51.1634 49.7769C51.2383 49.7769 51.3257 49.8175 51.3756 49.919V50.0002H49.8776Z" fill="#D1EFFA"/>
<path d="M51.3757 49.9188C50.8763 49.8986 50.377 49.8986 49.8776 49.9188C49.191 49.858 48.5044 49.8174 47.8178 49.7362C45.9952 49.513 44.185 49.0666 42.4123 48.3969C36.2828 46.0836 30.9023 41.4367 26.2084 34.6794C25.7715 34.0503 25.3595 33.401 24.9351 32.7516C24.8352 32.6096 24.7478 32.4067 24.6979 32.2038C24.623 31.9197 24.6604 31.6153 24.7852 31.3921C24.9101 31.1688 25.1098 31.0877 25.2846 31.2094C25.397 31.2906 25.5093 31.3718 25.6092 31.4732C30.0908 35.9781 34.9845 39.2654 40.1153 41.2135C41.8381 41.8628 43.5733 42.3701 45.321 42.7354C47.8303 43.2427 50.3645 43.4253 52.8862 43.2833C54.2469 43.2224 55.5952 43.0195 56.9434 42.7354C60.0893 42.0861 63.1978 40.9294 66.2064 39.306C67.7918 38.4538 69.3398 37.4797 70.8503 36.3434C71.0751 36.1404 71.3497 36.0796 71.5994 36.181C72.0113 36.3434 72.261 37.0333 72.1611 37.7029C72.1487 37.7841 72.1237 37.8856 72.0987 37.9667C71.9988 38.2711 71.8615 38.5349 71.6868 38.7378C70.2511 40.5641 68.7031 42.1672 67.0678 43.5065C63.9843 46.043 60.6886 47.849 57.293 48.8839C55.333 49.4521 53.3606 49.7971 51.3757 49.9188ZM32.8872 8.78655C33.1993 8.48216 33.5239 8.15749 33.8609 7.8734C34.7348 7.14288 35.7085 6.77762 36.6948 6.85879C37.4063 6.91966 38.0555 7.24434 38.5548 8.09661C39.0292 8.88801 39.204 9.86203 39.2539 10.9172C39.2664 11.1404 39.2664 11.3637 39.2664 11.6072V22.1185C39.2664 23.0317 39.1915 23.1534 38.6297 23.1534H37.1067C37.0069 23.1534 36.907 23.1534 36.8071 23.1331C36.6573 23.1128 36.5325 22.9099 36.5075 22.6664C36.4825 22.4432 36.4825 22.22 36.4825 21.9968V12.6015C36.495 12.2159 36.4701 11.8507 36.4076 11.4854C36.3078 10.8564 35.9582 10.4099 35.5587 10.3693C34.8222 10.2882 34.0857 10.5317 33.4115 11.039C33.3117 11.0796 33.2492 11.2419 33.2617 11.4042V22.0779C33.2617 22.2809 33.2617 22.4635 33.2368 22.6664C33.2368 22.9505 33.0994 23.1534 32.9247 23.1534C32.7374 23.1737 32.5501 23.1737 32.3504 23.1737H31.0271C30.5652 23.1737 30.4654 22.9911 30.4654 22.2403V12.6421C30.4654 12.2971 30.4529 11.9318 30.4029 11.5869C30.3156 10.8969 29.9535 10.4099 29.5291 10.3693C28.7801 10.2882 28.0185 10.5317 27.3444 11.0593C27.2445 11.0999 27.1821 11.2825 27.2071 11.4448V22.2606C27.2071 23.0114 27.1072 23.1737 26.6453 23.1737H24.9725C24.5356 23.1737 24.4232 22.9708 24.4232 22.2809V8.19807C24.4232 8.03573 24.4357 7.8734 24.4607 7.71106C24.5106 7.46755 24.6604 7.32551 24.8102 7.32551H26.3707C26.5954 7.32551 26.7327 7.54872 26.8076 7.89369C26.87 8.17778 26.9075 8.44158 26.9699 8.74596C27.0947 8.74596 27.1696 8.60392 27.257 8.52275C27.9436 7.83281 28.6677 7.24434 29.4791 7.00083C30.1033 6.79791 30.7275 6.79791 31.3517 7.00083C31.9384 7.20375 32.4628 7.77194 32.7998 8.58362C32.8248 8.6445 32.8498 8.68509 32.8747 8.72567C32.8622 8.74596 32.8747 8.74596 32.8872 8.78655Z" fill="#00A8E1"/>
<path d="M58.766 18.8923C58.8409 18.4864 58.9158 18.1009 58.9907 17.695C59.5649 14.5497 60.1392 11.4247 60.7135 8.27943L60.7884 7.91417C60.8508 7.54891 61.063 7.3257 61.2877 7.3257H63.1852C63.6596 7.3257 63.7595 7.54891 63.5972 8.27943L62.8482 11.5059C62.0118 15.0367 61.1754 18.5879 60.3389 22.1187C60.314 22.2405 60.2765 22.3622 60.2516 22.484C60.1642 22.9101 59.902 23.1942 59.6274 23.1536C59.0781 23.1333 58.5288 23.1333 57.9795 23.1536C57.5925 23.1739 57.3678 22.8898 57.2305 22.3216C56.9184 20.9824 56.5938 19.6228 56.2817 18.2835C55.5327 15.0976 54.7712 11.9117 54.0222 8.70557C53.9473 8.46206 53.8973 8.17797 53.8599 7.91417C53.8224 7.50833 53.9098 7.30541 54.1595 7.30541C54.8711 7.28511 55.5826 7.30541 56.2817 7.30541C56.5813 7.30541 56.7186 7.63008 56.7936 8.05622C56.9309 8.82732 57.0682 9.61872 57.218 10.3898C57.7298 13.2104 58.2292 16.0513 58.741 18.872C58.7285 18.8923 58.741 18.8923 58.766 18.8923Z" fill="white"/>
<path d="M14.4362 9.55775C14.5236 9.51717 14.5985 9.436 14.6484 9.31425C14.8731 8.94899 15.1103 8.60402 15.36 8.27934C16.0092 7.46765 16.8206 7.06181 17.632 7.16327C17.9566 7.18356 18.069 7.3459 18.0939 7.85321C18.1189 8.54314 18.1064 9.25337 18.1064 9.9433C18.1189 10.2274 18.1064 10.4912 18.0815 10.7753C18.0315 11.1405 17.9441 11.2826 17.7194 11.3232C17.5447 11.3435 17.3824 11.3232 17.2076 11.3029C16.3712 11.1811 15.5597 11.4449 14.7733 11.8711C14.5985 11.9725 14.5985 12.1754 14.5985 12.3987V22.1389C14.5985 22.3215 14.5985 22.4839 14.586 22.6665C14.5735 22.9303 14.4487 23.1332 14.2864 23.1332C14.199 23.1535 14.0991 23.1535 14.0118 23.1535H12.3889C12.3015 23.1535 12.2016 23.1535 12.1142 23.1332C11.9519 23.1129 11.8271 22.8897 11.8146 22.6259C11.8021 22.4636 11.8021 22.3013 11.8021 22.1389V8.34022C11.8021 7.40678 11.8645 7.30532 12.4388 7.30532H13.6372C13.9618 7.30532 14.1116 7.48795 14.199 7.99525C14.2864 8.50256 14.3613 9.00986 14.4362 9.55775ZM72.8353 30.134C73.6592 30.1746 74.4706 30.2558 75.2696 30.6008C75.4943 30.7022 75.7065 30.824 75.9187 30.9863C76.2059 31.169 76.3931 31.6154 76.4306 32.1024C76.4805 32.6706 76.493 33.259 76.468 33.8475C76.3057 37.3175 75.6441 40.6657 74.5455 43.6487C74.1461 44.7241 73.6592 45.6982 73.0974 46.5504C72.9851 46.7331 72.8477 46.8751 72.6979 46.9563C72.4607 47.0578 72.3109 46.8548 72.2985 46.4693C72.3109 46.2664 72.3359 46.0634 72.3858 45.8605C72.8228 43.953 73.2472 42.0659 73.5843 40.0975C73.784 39.022 73.9213 37.9263 74.0087 36.8102C74.0337 36.4043 74.0462 35.9985 74.0212 35.5927C74.0087 34.9027 73.7341 34.3142 73.3221 34.1113C72.9351 33.9084 72.5357 33.7866 72.1237 33.7461C70.9752 33.6649 69.8267 33.7461 68.6907 33.9896L67.1801 34.294C67.0178 34.3142 66.868 34.294 66.7806 34.0504C66.6932 33.8069 66.7307 33.5634 66.8181 33.3199C66.918 33.0967 67.0428 32.8938 67.1926 32.7517C68.1164 31.6763 69.1525 31.0269 70.2511 30.6008C71.1 30.3167 71.9614 30.1746 72.8353 30.134Z" fill="#00A8E1"/>
<path d="M67.6046 15.2396V22.5448C67.5796 22.9507 67.4673 23.1333 67.2176 23.1536C66.5435 23.1739 65.8818 23.1739 65.2077 23.1536C64.958 23.1536 64.8457 22.9507 64.8207 22.5651C64.8082 22.4434 64.8082 22.3013 64.8082 22.1796V8.13737C64.8207 7.50831 64.9206 7.32568 65.3076 7.32568H67.1052C67.4922 7.32568 67.6046 7.50831 67.6046 8.13737V15.2396Z" fill="white"/>
<path d="M19.3049 15.1988V7.99505C19.3174 7.50804 19.4297 7.32541 19.7293 7.30512C20.3785 7.28483 21.0276 7.28483 21.6768 7.30512C21.9639 7.30512 22.0513 7.44717 22.0763 7.91389C22.0887 8.09652 22.0887 8.25885 22.0887 8.44148V21.9561C22.0887 22.1793 22.0763 22.4025 22.0638 22.6257C22.0513 22.8895 21.9265 23.0722 21.7642 23.0925C21.6893 23.1127 21.6269 23.1128 21.5519 23.1128H19.8167C19.7543 23.1128 19.7044 23.1127 19.6419 23.0925C19.4672 23.0722 19.3174 22.849 19.3049 22.5649C19.2924 22.4025 19.2924 22.2402 19.2924 22.0778C19.3049 19.8254 19.3049 17.5121 19.3049 15.1988ZM20.753 0.0405091C20.9527 0.0202169 21.1525 0.0810935 21.3397 0.182555C22.0138 0.547814 22.3634 1.50155 22.301 2.73937C22.251 3.79457 21.7642 4.64684 21.115 4.80918C20.8404 4.89035 20.5532 4.89035 20.2786 4.80918C19.567 4.58596 19.0427 3.73369 19.0926 2.27265C19.1675 0.831905 19.7543 0.0405091 20.753 0.0405091Z" fill="#00A8E1"/>
<path d="M66.2189 0.0406157C66.4686 3.13073e-05 66.7183 0.0812002 66.9554 0.243538C67.4423 0.547921 67.7794 1.27844 67.8043 2.13071C67.9042 3.9773 67.1427 4.91075 66.1315 4.87016C65.9942 4.87016 65.8569 4.82958 65.7196 4.78899C64.9456 4.48461 64.5461 3.51058 64.621 2.11042C64.6834 0.99435 65.2202 0.162369 65.9567 0.0609079C66.0441 0.0406157 66.1315 0.0203235 66.2189 0.0406157Z" fill="white"/>
<path d="M9.95457 13.535C9.90463 12.4798 9.72986 11.4449 9.4677 10.4911C8.95586 8.746 8.16939 7.46759 6.97095 7.02116C5.59773 6.53415 4.36184 7.02116 3.2383 8.38074C3.1634 8.50249 3.07601 8.60395 2.97614 8.68512C2.95117 8.66483 2.92621 8.64454 2.92621 8.62425C2.88875 8.42132 2.86379 8.2184 2.82633 8.01548C2.72646 7.50817 2.60163 7.32554 2.26457 7.32554C1.89005 7.32554 1.50306 7.34584 1.12854 7.32554C0.841416 7.30525 0.579257 7.36613 0.379517 7.73139C0.379517 14.8337 0.379517 21.9562 0.392 29.0382C0.554289 29.4643 0.803965 29.5455 1.09109 29.5252C1.54051 29.5049 1.98992 29.5252 2.43934 29.5252C3.22582 29.5252 3.22582 29.5252 3.22582 28.2671V22.4838C3.22582 22.3418 3.18836 22.1794 3.27575 22.0577C3.89994 22.8491 4.66145 23.3361 5.44793 23.4578C6.5465 23.6405 7.5452 23.194 8.38161 21.9765C8.99332 21.0634 9.44273 19.8864 9.67992 18.5877C10.017 16.9238 10.042 15.2395 9.95457 13.535ZM6.97095 17.7354C6.88356 18.3645 6.68382 18.9327 6.39669 19.3588C6.07211 19.8053 5.67263 20.0691 5.24819 20.0691C4.61151 20.1299 3.98733 19.9067 3.42556 19.4197C3.28823 19.3182 3.20085 19.095 3.21333 18.8515V15.1786C3.21333 13.9611 3.22582 12.7436 3.21333 11.526C3.20085 11.2419 3.30072 10.9984 3.46301 10.897C4.14961 10.3694 4.86119 10.1259 5.61022 10.3694C6.13453 10.4911 6.58395 11.039 6.79617 11.8304C6.98343 12.4798 7.09578 13.19 7.12075 13.9002C7.19565 15.1989 7.19565 16.4976 6.97095 17.7354Z" fill="#00A8E1"/>
<path d="M100.262 16.7005C100.262 16.6802 100.262 16.6802 100.262 16.7005V16.7005ZM100.275 13.9813V14.0625C100.225 13.9813 100.2 13.8596 100.225 13.7581V13.5958C100.225 13.5958 100.225 13.5755 100.237 13.5755H100.225V13.3726H100.25C100.25 13.3523 100.237 13.3523 100.237 13.332C100.212 12.9464 100.162 12.5609 100.1 12.1956C99.6379 9.51703 98.6017 7.75161 96.9164 7.06168C96.1299 6.75729 95.331 6.71671 94.532 6.91963C92.8467 7.32547 91.6358 8.78651 91.049 11.3839C90.4748 13.8596 90.4873 16.5787 91.0615 19.0544C91.5609 21.3068 92.5596 22.7273 93.9952 23.3157C94.7567 23.6201 95.5557 23.7013 96.3421 23.5187C98.9637 23.0114 100.05 19.7849 100.225 16.9846H100.212V16.7005C100.2 16.5787 100.187 16.4773 100.262 16.3961V16.4367C100.262 16.4164 100.275 16.3758 100.287 16.3555V14.0219C100.287 14.0016 100.275 14.0016 100.275 13.9813ZM97.2784 17.8368C97.2035 18.263 97.0912 18.6485 96.9289 19.0138C96.6542 19.6428 96.2173 20.0487 95.7429 20.1096C95.5057 20.1502 95.2685 20.1502 95.0313 20.069C94.507 19.9066 94.0701 19.3385 93.8579 18.5471C93.6706 17.918 93.5583 17.2281 93.5208 16.5381C93.4584 15.3409 93.4459 14.1437 93.6207 12.9667C93.6831 12.5 93.8079 12.0333 93.9577 11.6274C94.2324 10.8969 94.7068 10.4302 95.2311 10.3693C95.4683 10.3287 95.7055 10.3287 95.9427 10.4099C96.442 10.5722 96.854 11.0998 97.0787 11.8506C97.2909 12.5609 97.4157 13.3523 97.4407 14.1437C97.4532 14.5089 97.4657 14.8742 97.4532 15.2394C97.4906 16.1323 97.4282 17.0049 97.2784 17.8368ZM78.3905 0.182617H76.6552C76.1809 0.182617 76.0935 0.324663 76.0935 1.09577V7.67044C76.0935 7.81249 76.1309 7.95453 76.0685 8.09658C75.9562 8.07629 75.8937 7.95453 75.8063 7.87336C74.508 6.63554 73.1473 6.41233 71.7741 7.44723C70.8128 8.17775 70.2136 9.49674 69.8266 11.0592C69.4521 12.5609 69.3647 14.1437 69.3897 15.7467C69.3897 17.2484 69.6019 18.7297 70.0139 20.069C70.4883 21.5503 71.1749 22.6867 72.1736 23.1737C73.5343 23.8636 74.8076 23.5187 75.9686 22.1185C76.056 22.0373 76.106 21.8953 76.2183 21.8547C76.2807 22.0779 76.3307 22.3214 76.3556 22.5649C76.4056 22.8896 76.5803 23.1128 76.7926 23.1128H77.0922C77.5416 23.1128 77.9785 23.1331 78.4155 23.1128C78.765 23.1128 78.8649 22.9302 78.8774 22.3417V0.953721C78.8649 0.324663 78.765 0.182617 78.3905 0.182617ZM76.106 15.1177V18.8109C76.1309 19.0544 76.0435 19.2776 75.9062 19.379C75.307 19.9269 74.6204 20.1502 73.9463 19.9878C73.372 19.8864 72.8727 19.3182 72.6105 18.4862C72.4108 17.8368 72.2984 17.1469 72.261 16.4367C72.1611 15.1583 72.2235 13.8596 72.4108 12.6217C72.4732 12.2768 72.5481 11.9521 72.6604 11.6274C72.9226 10.836 73.4219 10.3287 73.9712 10.2678C74.6329 10.1664 75.2945 10.3693 75.8937 10.8157C76.0435 10.8969 76.1309 11.1404 76.1184 11.4042C76.0935 12.6623 76.106 13.8799 76.106 15.1177Z" fill="white"/>
<path d="M43.823 16.5181C44.7593 16.8022 45.7205 16.8225 46.6568 16.579C47.2061 16.4572 47.7304 16.1934 48.2173 15.7673C48.779 15.2397 49.191 14.5092 49.3658 13.4945C49.8027 10.9377 49.1286 8.36062 47.4932 7.40689C46.6942 6.98075 45.8453 6.8387 45.0089 7.02133C43.0365 7.38659 41.7507 9.15202 41.1639 12.2161C40.752 14.3062 40.8019 16.4369 41.139 18.5473C41.5759 21.2462 42.6745 22.8493 44.3348 23.4174C45.2836 23.7624 46.2448 23.7015 47.1936 23.458C47.6929 23.316 48.1923 23.1131 48.6667 22.8087C48.9538 22.626 49.1036 22.342 49.0911 21.8144C49.0786 21.3273 49.0911 20.82 49.0911 20.3127C49.0911 19.704 48.9413 19.5213 48.5793 19.6634C48.2173 19.8054 47.8677 19.9272 47.5057 20.0489C46.7317 20.3127 45.9327 20.3127 45.1587 20.0895C44.0976 19.7445 43.411 18.2632 43.4734 16.4369C43.5858 16.4572 43.7106 16.4775 43.823 16.5181ZM43.5109 13.4134C43.5483 12.9264 43.6357 12.4596 43.7481 12.0132C44.1226 10.5319 44.9091 10.0246 45.708 10.1057C45.9327 10.126 46.1574 10.2072 46.3697 10.3493C46.6942 10.5725 46.9065 11.0595 46.9439 11.6277C46.9814 11.9726 46.9689 12.3379 46.9065 12.6829C46.7567 13.4134 46.3946 13.7178 45.9577 13.8598C45.6955 13.9613 45.4209 14.0019 45.1463 13.9613C44.6594 13.9613 44.16 13.9004 43.6732 13.7786C43.4859 13.7381 43.4859 13.7381 43.5109 13.4134Z" fill="#00A8E1"/>
<path d="M85.9308 16.721C86.6548 16.6398 87.3789 16.4166 88.028 15.8484C88.6897 15.3208 89.1516 14.3265 89.2889 13.1495C89.3763 12.419 89.3763 11.6479 89.2764 10.9174C89.0142 9.09111 88.3027 7.95474 87.2291 7.36627C86.6299 7.06188 85.9932 6.94013 85.369 6.98071C83.2717 7.06188 81.6738 8.78672 81.0246 12.1958C80.5877 14.4482 80.6501 16.7413 81.0746 18.9937C81.5115 21.307 82.5102 22.7072 83.9334 23.3362C84.5451 23.5797 85.1817 23.6812 85.8059 23.6406C86.7172 23.6203 87.6285 23.3362 88.4899 22.8086C88.852 22.5854 88.9393 22.3825 88.9393 21.7534V20.2924C88.9269 19.7039 88.7771 19.501 88.415 19.6431C88.1404 19.7648 87.8782 19.8663 87.6036 19.9677C86.7672 20.2924 85.8933 20.3533 85.0444 20.1098C84.1955 19.846 83.6213 19.0546 83.3966 17.6747C83.3341 17.2689 83.2842 16.863 83.2592 16.4369C83.3217 16.4369 83.3841 16.4369 83.434 16.4775C84.2579 16.721 85.0943 16.8224 85.9308 16.721ZM83.3217 13.4742C83.409 12.6828 83.5214 11.9117 83.821 11.2624C84.2829 10.2681 84.9196 9.98396 85.6436 10.1057C85.706 10.1057 85.756 10.1463 85.8184 10.1463C86.6923 10.3695 86.9045 11.5059 86.7422 12.6017C86.6174 13.4133 86.2054 13.7177 85.7435 13.8598C85.4938 13.9409 85.2317 13.9815 84.9695 13.9612C84.4577 13.9409 83.9583 13.8801 83.459 13.7583C83.3466 13.738 83.2967 13.6569 83.3217 13.4742Z" fill="white"/>
</svg>
