<svg width="109" height="45" viewBox="0 0 109 45" fill="none" xmlns="http://www.w3.org/2000/svg">
<path d="M82.0204 32.158C86.6818 32.158 90.4585 28.3651 90.4585 23.6978C90.4585 19.0197 86.6818 15.2329 82.0204 15.2329C77.3594 15.2329 73.5842 19.0197 73.5842 23.6978C73.5842 28.3651 77.3594 32.158 82.0204 32.158Z" fill="white"/>
<path d="M19.3942 29.0865V44.5686H30.8431V2.99561H19.3942V18.6487H12.1074V2.99561H0.658569V44.5686H12.1074V29.0865H19.3942Z" fill="white"/>
<path d="M60.9222 23.6977C60.9222 12.4112 69.7302 3.18551 80.8336 2.56934H83.2033C94.3067 3.18558 103.119 12.4112 103.119 23.6977C103.119 35.3769 93.6745 44.8522 82.0204 44.8522C70.3666 44.8522 60.9222 35.3769 60.9222 23.6977ZM82.0203 34.2755C87.8482 34.2755 92.5703 29.5349 92.5703 23.6977C92.5703 17.8558 87.8481 13.1195 82.0203 13.1195C76.1944 13.1195 71.4722 17.8559 71.4722 23.6977C71.4722 29.535 76.1944 34.2755 82.0203 34.2755Z" fill="white"/>
<path d="M50.7949 2.99564C53.9192 2.99564 62.7619 4.73778 62.7619 13.6041C62.7619 20.7356 59.3405 22.8635 56.6939 23.3471C54.7816 23.6976 62.4124 23.3471 62.4124 32.2135C62.4124 44.9192 51.3135 44.5687 51.3135 44.5687H33.2682V2.99561L50.7949 2.99564ZM43.5035 13.1194V19.3804H49.5772C49.5772 19.3804 52.0127 19.0867 52.0127 16.0929C52.0127 13.0845 49.4942 13.1194 49.4942 13.1194L43.5035 13.1194ZM43.5035 28.4278V34.6919H49.5772C49.5772 34.6919 52.0127 34.3939 52.0127 31.3997C52.0127 28.3913 49.4942 28.4278 49.4942 28.4278H43.5035Z" fill="white"/>
<path d="M103.484 8.19183H102.404V3.11805H104.297C105.601 3.11805 106.361 3.48772 106.361 4.6462C106.361 5.58035 105.836 5.91282 105.154 5.9761L106.454 8.19182H105.165L103.995 6.05471H103.484V8.19183ZM104.442 5.19918C104.93 5.19918 105.206 5.09449 105.206 4.54152C105.206 4.01462 104.654 3.97359 104.244 3.97359H103.484V5.19918L104.442 5.19918ZM104.27 10.3665C101.763 10.3665 99.5378 8.62555 99.5378 5.66242C99.5378 2.68089 101.763 0.943359 104.27 0.943359C106.771 0.943359 108.977 2.68089 108.977 5.66242C108.977 8.62555 106.771 10.3665 104.27 10.3665ZM104.27 2.03819C102.404 2.03819 100.894 3.48773 100.894 5.66243C100.894 7.82217 102.404 9.28667 104.27 9.27171C106.085 9.27171 107.639 7.82217 107.639 5.66242C107.639 3.48773 106.085 2.03819 104.27 2.03819Z" fill="white"/>
</svg>
